<?xml version="1.0" standalone="no"?>
<!DOCTYPE svg PUBLIC "-//W3C//DTD SVG 20010904//EN"
 "http://www.w3.org/TR/2001/REC-SVG-20010904/DTD/svg10.dtd">
<svg version="1.0" xmlns="http://www.w3.org/2000/svg"
 width="70.000000pt" height="70.000000pt" viewBox="0 0 70.000000 70.000000"
 preserveAspectRatio="xMidYMid meet">
<metadata>
Created by potrace 1.11, written by Peter Selinger 2001-2013
</metadata>
<g transform="translate(0.000000,70.000000) scale(0.100000,-0.100000)"
fill="#000000" stroke="none">
<path d="M97 630 c-7 -3 -12 -12 -12 -20 0 -8 -10 -16 -23 -18 -15 -2 -22 -8
-18 -18 6 -14 -27 -38 -38 -27 -3 3 -6 -24 -6 -60 0 -64 4 -73 33 -68 7 1 10
-15 9 -61 0 -20 5 -28 21 -30 14 -2 23 -11 25 -26 3 -18 8 -21 23 -17 16 5 20
3 17 -11 -2 -11 7 -23 22 -31 14 -7 25 -18 26 -25 2 -28 4 -30 18 -19 10 8 16
9 21 1 3 -5 4 -10 0 -10 -3 0 -1 -9 5 -20 6 -11 20 -20 31 -20 16 0 19 -4 14
-20 -5 -15 -2 -20 13 -20 10 0 23 -10 29 -22 7 -16 19 -22 46 -23 32 0 37 3
37 22 0 15 7 23 23 25 15 2 21 9 19 21 -2 9 2 18 8 18 5 1 16 2 23 3 6 1 11 9
11 18 -1 10 10 21 28 27 20 7 28 16 25 25 -4 10 2 16 16 18 12 2 23 9 23 16 1
6 2 16 3 22 0 5 7 7 15 4 8 -3 19 3 26 15 6 12 7 21 3 22 -4 1 3 4 17 8 22 6
25 12 24 49 0 36 3 41 20 39 19 -2 21 4 24 66 2 51 0 68 -10 66 -28 -3 -37 2
-33 21 4 19 -5 24 -32 21 -7 -1 -13 8 -13 21 0 22 -3 23 -85 23 -79 0 -84 -1
-90 -22 -3 -13 -12 -23 -20 -23 -9 0 -19 -10 -24 -23 -15 -40 -90 -23 -91 20
0 6 -9 9 -20 6 -15 -4 -18 -1 -15 16 2 12 -2 21 -8 22 -43 4 -150 3 -160 -1z"/>
</g>
</svg>
